<svg xmlns="http://www.w3.org/2000/svg" viewBox="0 0 64 64"><g data-name="katman 2"><path fill="#ecf0f1" stroke="#434a54" stroke-linecap="round" stroke-linejoin="round" stroke-width="2" d="M46 35v19a6 6 0 0 1-6 6H24a6 6 0 0 1-6-6V35"/><path fill="#f1c40f" stroke="#434a54" stroke-linecap="round" stroke-linejoin="round" stroke-width="2" d="M18 35V18a6 6 0 0 1 6-6h16a6 6 0 0 1 6 6v17"/><path fill="none" stroke="#434a54" stroke-linecap="round" stroke-linejoin="round" stroke-width="2" d="M43 22.5V18a3 3 0 00-3-3h-3M43 49.92V44M43 54v-1M21 52.75V54a3 3 0 003 3h3"/><path fill="#ecf0f1" stroke="#434a54" stroke-linecap="round" stroke-linejoin="round" stroke-width="2" d="M28 6h8a2 2 0 0 1 2 2v4H26V8a2 2 0 0 1 2-2z"/><path fill="none" stroke="#434a54" stroke-linecap="round" stroke-linejoin="round" stroke-width="2" d="M28 21h8M32 25v-8M28 52h8M18 38h3M43 32h3M18 35h12M34 35h12"/><path fill="none" d="M0 0h64v64H0z"/></g></svg>