<?xml version="1.0" encoding="UTF-8" standalone="no"?>
<svg
   viewBox="0 0 64 64"
   version="1.1"
   id="svg19091"
   sodipodi:docname="battery_half.svg"
   inkscape:version="1.1.2 (0a00cf5339, 2022-02-04)"
   xmlns:inkscape="http://www.inkscape.org/namespaces/inkscape"
   xmlns:sodipodi="http://sodipodi.sourceforge.net/DTD/sodipodi-0.dtd"
   xmlns="http://www.w3.org/2000/svg"
   xmlns:svg="http://www.w3.org/2000/svg">
  <defs
     id="defs19095" />
  <sodipodi:namedview
     id="namedview19093"
     pagecolor="#505050"
     bordercolor="#ffffff"
     borderopacity="1"
     inkscape:pageshadow="0"
     inkscape:pageopacity="0"
     inkscape:pagecheckerboard="1"
     showgrid="false"
     inkscape:zoom="18.546875"
     inkscape:cx="20.946925"
     inkscape:cy="32"
     inkscape:window-width="3440"
     inkscape:window-height="1387"
     inkscape:window-x="0"
     inkscape:window-y="1105"
     inkscape:window-maximized="1"
     inkscape:current-layer="svg19091" />
  <g
     data-name="katman 2"
     id="g19089">
    <path
       fill="#ecf0f1"
       stroke="#434a54"
       stroke-linecap="round"
       stroke-linejoin="round"
       stroke-width="2"
       d="M46 35v19a6 6 0 0 1-6 6H24a6 6 0 0 1-6-6V35"
       id="path19077"
       style="fill:#d79921;fill-opacity:1" />
    <path
       fill="#f1c40f"
       stroke="#434a54"
       stroke-linecap="round"
       stroke-linejoin="round"
       stroke-width="2"
       d="M18 35V18a6 6 0 0 1 6-6h16a6 6 0 0 1 6 6v17"
       id="path19079"
       style="fill:#fadb2f;fill-opacity:1;stroke-linejoin:round;stroke-linecap:round" />
    <path
       fill="none"
       stroke="#434a54"
       stroke-linecap="round"
       stroke-linejoin="round"
       stroke-width="2"
       d="M43 22.5V18a3 3 0 00-3-3h-3M43 49.92V44M43 54v-1M21 52.75V54a3 3 0 003 3h3"
       id="path19081" />
    <path
       fill="#ecf0f1"
       stroke="#434a54"
       stroke-linecap="round"
       stroke-linejoin="round"
       stroke-width="2"
       d="M28 6h8a2 2 0 0 1 2 2v4H26V8a2 2 0 0 1 2-2z"
       id="path19083"
       style="fill:#d79921;fill-opacity:1" />
    <path
       fill="none"
       stroke="#434a54"
       stroke-linecap="round"
       stroke-linejoin="round"
       stroke-width="2"
       d="m 28,21 h 8 m -4,4 v -8 m -4,35 h 8 M 18,38 h 3 m 22,-6 h 3 m -28,3 h 12 m 0,0 h 16"
       id="path19085"
       sodipodi:nodetypes="cccccccccccccc" />
    <path
       fill="none"
       d="M0 0h64v64H0z"
       id="path19087" />
  </g>
</svg>
